# xmcd
#
# Track frame offsets:
#	150
#	11753
#	23906
#	28016
#	44211
#	59335
#	61798
#	79270
#	92549
#	95940
#	110887
#	128046
#	149700
#	166191
#	178702
#	179775
#	192149
#	193344
#	210396
#	223659
#	225800
#	241314
#	255478
#	267921
#	270061
#	288104
#
# Disc length: 4110 seconds
# Revision: 0
# Processed by: cddbd v1.5.2PL0 Copyright (c) Steve Scherf et al.
# Submitted via: dBpowerAMP V12.0
#
DISCID=7d100c1a
DTITLE=Hot Rize - 40th Anniversary Bash
DYEAR=2018
DGENRE=Bluegrass
TTITLE0=Blue Night
TTITLE1=Western Skies
TTITLE2=Intro - Colleen Malone
TTITLE3=Colleen Malone
TTITLE4=Huckling the Berries
TTITLE5=Intro - Wichita Lineman
TTITLE6=Wichita Lineman
TTITLE7=You Were On My Mind This Morning
TTITLE8=Intro - Out on the Ocean
TTITLE9=Out on the Ocean
TTITLE10=Just Like You
TTITLE11=Burn it Down
TTITLE12=Things in Life
TTITLE13=The High Road
TTITLE14=Intro - Radio Boogie
TTITLE15=Radio Boogie
TTITLE16=Intro - Walk the Way the Wind Blows
TTITLE17=Walk the Way the Wind Blows
TTITLE18=Your Light Leads Me On
TTITLE19=Intro - I AmThe Road
TTITLE20=I Am the Road
TTITLE21=Nellie Kane
TTITLE22=Hard Pressed
TTITLE23=Intro - High on a Mountain
TTITLE24=High on a Mountain
TTITLE25=Angelina Baker
EXTD=
EXTT0=
EXTT1=
EXTT2=
EXTT3=
EXTT4=
EXTT5=
EXTT6=
EXTT7=
EXTT8=
EXTT9=
EXTT10=
EXTT11=
EXTT12=
EXTT13=
EXTT14=
EXTT15=
EXTT16=
EXTT17=
EXTT18=
EXTT19=
EXTT20=
EXTT21=
EXTT22=
EXTT23=
EXTT24=
EXTT25=
PLAYORDER=
